<svg xmlns="http://www.w3.org/2000/svg" width="820" height="420" viewBox="0 0 820 420">
  <rect width="100%" height="100%" fill="#fbfbf7"/>
  <text x="64" y="22" font-family="Arial, sans-serif" font-size="16" fill="#111827">MiniGPT loss curve</text>
  <line x1="64" y1="32" x2="64" y2="366" stroke="#374151" stroke-width="1"/>
  <line x1="64" y1="366" x2="792" y2="366" stroke="#374151" stroke-width="1"/>
  <polyline points="64.0,32.0 89.3,85.6 117.4,126.9 145.5,150.5 173.6,189.1 201.7,198.6 229.8,209.8 257.9,238.9 286.1,240.9 314.2,253.8 342.3,261.9 370.4,295.7 398.5,271.1 426.6,303.3 454.7,299.7 482.8,302.7 510.9,307.8 539.0,329.7 567.1,326.8 595.2,333.9 623.4,325.0 651.5,316.9 679.6,349.4 707.7,340.7 735.8,336.3 763.9,323.7 792.0,354.1" fill="none" stroke="#2563eb" stroke-width="3"/>
  <polyline points="64.0,35.8 89.3,102.2 117.4,147.5 145.5,181.8 173.6,209.4 201.7,226.6 229.8,246.4 257.9,264.8 286.1,284.7 314.2,289.1 342.3,303.5 370.4,316.6 398.5,319.9 426.6,331.5 454.7,331.4 482.8,345.9 510.9,347.9 539.0,344.2 567.1,350.1 595.2,346.5 623.4,340.7 651.5,354.8 679.6,361.7 707.7,354.4 735.8,354.7 763.9,366.0 792.0,348.8" fill="none" stroke="#dc2626" stroke-width="3"/>
  <text x="64" y="398" font-family="Arial, sans-serif" font-size="13" fill="#374151">step 1 to 260</text>
  <text x="560" y="398" font-family="Arial, sans-serif" font-size="13" fill="#374151">best val: 0.3688 @ step 250</text>
  <circle cx="763.9" cy="366.0" r="5" fill="#dc2626"/>
  <rect x="650" y="30" width="130" height="54" rx="4" fill="#ffffff" stroke="#d1d5db"/>
  <line x1="664" y1="50" x2="704" y2="50" stroke="#2563eb" stroke-width="3"/>
  <text x="714" y="54" font-family="Arial, sans-serif" font-size="13" fill="#111827">train</text>
  <line x1="664" y1="72" x2="704" y2="72" stroke="#dc2626" stroke-width="3"/>
  <text x="714" y="76" font-family="Arial, sans-serif" font-size="13" fill="#111827">val</text>
</svg>
