<svg xmlns="http://www.w3.org/2000/svg" width="980" height="460" viewBox="0 0 980 460">
  <rect width="100%" height="100%" fill="#f7f7f2"/>
  <text x="40" y="42" font-family="Arial" font-size="22" fill="#111827">MiniGPT run manifest</text>
  <text x="40" y="64" font-family="Arial" font-size="13" fill="#4b5563">Reproducibility snapshot for training data, code, config, metrics, and artifacts.</text>
  <rect x="40" y="82" width="200" height="48" rx="8" fill="#ffffff" stroke="#d1d5db"/><text x="52" y="100" font-family="Arial" font-size="11" fill="#6b7280">Run</text><text x="52" y="120" font-family="Arial" font-size="15" fill="#111827">e\561\解释\model-capabi...</text><rect x="265" y="82" width="200" height="48" rx="8" fill="#ffffff" stroke="#d1d5db"/><text x="277" y="100" font-family="Arial" font-size="11" fill="#6b7280">Git</text><text x="277" y="120" font-family="Arial" font-size="15" fill="#111827">144d473</text><rect x="490" y="82" width="200" height="48" rx="8" fill="#ffffff" stroke="#d1d5db"/><text x="502" y="100" font-family="Arial" font-size="11" fill="#6b7280">Dirty</text><text x="502" y="120" font-family="Arial" font-size="15" fill="#111827">True</text><rect x="715" y="82" width="200" height="48" rx="8" fill="#ffffff" stroke="#d1d5db"/><text x="727" y="100" font-family="Arial" font-size="11" fill="#6b7280">Tokens</text><text x="727" y="120" font-family="Arial" font-size="15" fill="#111827">129157</text><rect x="40" y="148" width="200" height="48" rx="8" fill="#ffffff" stroke="#d1d5db"/><text x="52" y="166" font-family="Arial" font-size="11" fill="#6b7280">Parameters</text><text x="52" y="186" font-family="Arial" font-size="15" fill="#111827">53376</text><rect x="265" y="148" width="200" height="48" rx="8" fill="#ffffff" stroke="#d1d5db"/><text x="277" y="166" font-family="Arial" font-size="11" fill="#6b7280">Best val</text><text x="277" y="186" font-family="Arial" font-size="15" fill="#111827">2.1765317916870117</text><rect x="490" y="148" width="200" height="48" rx="8" fill="#ffffff" stroke="#d1d5db"/><text x="502" y="166" font-family="Arial" font-size="11" fill="#6b7280">Artifacts</text><text x="502" y="186" font-family="Arial" font-size="15" fill="#111827">7</text><rect x="715" y="148" width="200" height="48" rx="8" fill="#ffffff" stroke="#d1d5db"/><text x="727" y="166" font-family="Arial" font-size="11" fill="#6b7280">Duration</text><text x="727" y="186" font-family="Arial" font-size="15" fill="#111827">23.0s</text>
  <text x="40" y="184" font-family="Arial" font-size="16" fill="#111827">Available artifacts</text>
  <text x="40" y="210" font-family="Arial" font-size="13" fill="#111827">checkpoint - 645.3 KB</text><text x="40" y="240" font-family="Arial" font-size="13" fill="#111827">tokenizer - 420 B</text><text x="40" y="270" font-family="Arial" font-size="13" fill="#111827">train_config - 1.1 KB</text><text x="40" y="300" font-family="Arial" font-size="13" fill="#111827">metrics - 569 B</text><text x="40" y="330" font-family="Arial" font-size="13" fill="#111827">history_summary - 214 B</text><text x="40" y="360" font-family="Arial" font-size="13" fill="#111827">loss_curve - 1.4 KB</text><text x="40" y="390" font-family="Arial" font-size="13" fill="#111827">sample - 81 B</text>
</svg>
