<svg xmlns="http://www.w3.org/2000/svg" width="820" height="420" viewBox="0 0 820 420">
  <rect width="100%" height="100%" fill="#fbfbf7"/>
  <text x="64" y="22" font-family="Arial, sans-serif" font-size="16" fill="#111827">MiniGPT loss curve</text>
  <line x1="64" y1="32" x2="64" y2="366" stroke="#374151" stroke-width="1"/>
  <line x1="64" y1="366" x2="792" y2="366" stroke="#374151" stroke-width="1"/>
  <polyline points="64.0,32.0 93.9,89.2 127.2,133.1 160.4,154.7 193.6,199.3 226.9,214.5 260.1,227.1 293.4,238.3 326.6,265.3 359.9,280.6 393.1,276.6 426.3,293.0 459.6,309.0 492.8,316.7 526.1,307.8 559.3,339.5 592.5,335.9 625.8,351.1 659.0,359.2 692.3,355.6 725.5,348.0 758.8,359.9 792.0,365.2" fill="none" stroke="#2563eb" stroke-width="3"/>
  <polyline points="64.0,45.5 93.9,113.7 127.2,164.0 160.4,208.9 193.6,228.7 226.9,250.1 260.1,267.1 293.4,291.3 326.6,308.4 359.9,312.8 393.1,327.6 426.3,309.5 459.6,327.6 492.8,326.5 526.1,340.2 559.3,334.4 592.5,329.9 625.8,336.5 659.0,348.5 692.3,343.7 725.5,340.9 758.8,366.0 792.0,340.1" fill="none" stroke="#dc2626" stroke-width="3"/>
  <text x="64" y="398" font-family="Arial, sans-serif" font-size="13" fill="#374151">step 1 to 220</text>
  <text x="560" y="398" font-family="Arial, sans-serif" font-size="13" fill="#374151">best val: 0.6380 @ step 210</text>
  <circle cx="758.8" cy="366.0" r="5" fill="#dc2626"/>
  <rect x="650" y="30" width="130" height="54" rx="4" fill="#ffffff" stroke="#d1d5db"/>
  <line x1="664" y1="50" x2="704" y2="50" stroke="#2563eb" stroke-width="3"/>
  <text x="714" y="54" font-family="Arial, sans-serif" font-size="13" fill="#111827">train</text>
  <line x1="664" y1="72" x2="704" y2="72" stroke="#dc2626" stroke-width="3"/>
  <text x="714" y="76" font-family="Arial, sans-serif" font-size="13" fill="#111827">val</text>
</svg>
