<svg xmlns="http://www.w3.org/2000/svg" width="1040" height="856" viewBox="0 0 1040 856">
  <rect width="100%" height="100%" fill="#f8fafc"/>
  <text x="28" y="34" font-family="Arial" font-size="20" fill="#111827">MiniGPT generation quality</text>
  <text x="28" y="58" font-family="Arial" font-size="13" fill="#374151">Status: pass | Cases: 10 | Avg chars: 4.0</text>
  <text x="28" y="78" font-family="Arial" font-size="12" fill="#374151">Colored bars show unique ratio; gray bars show repeated n-gram ratio.</text>
  <text x="28" y="114" font-family="Arial" font-size="13" fill="#111827">continuation-science  pass  flags=0</text><rect x="290" y="122" width="420" height="12" rx="3" fill="#047857"/><rect x="290" y="140" width="2" height="12" rx="3" fill="#64748b"/><text x="726" y="133" font-family="Arial" font-size="12" fill="#374151">unique=100.0%</text><text x="726" y="151" font-family="Arial" font-size="12" fill="#374151">repeat=0.0%</text><text x="28" y="146" font-family="Arial" font-size="12" fill="#4b5563">.s以很</text><text x="28" y="184" font-family="Arial" font-size="13" fill="#111827">qa-training-loop  pass  flags=0</text><rect x="290" y="192" width="420" height="12" rx="3" fill="#047857"/><rect x="290" y="210" width="2" height="12" rx="3" fill="#64748b"/><text x="726" y="203" font-family="Arial" font-size="12" fill="#374151">unique=100.0%</text><text x="726" y="221" font-family="Arial" font-size="12" fill="#374151">repeat=0.0%</text><text x="28" y="216" font-family="Arial" font-size="12" fill="#4b5563">：成类少</text><text x="28" y="254" font-family="Arial" font-size="13" fill="#111827">summary-evidence-chain  pass  flags=0</text><rect x="290" y="262" width="420" height="12" rx="3" fill="#047857"/><rect x="290" y="280" width="2" height="12" rx="3" fill="#64748b"/><text x="726" y="273" font-family="Arial" font-size="12" fill="#374151">unique=100.0%</text><text x="726" y="291" font-family="Arial" font-size="12" fill="#374151">repeat=0.0%</text><text x="28" y="286" font-family="Arial" font-size="12" fill="#4b5563">种有r通</text><text x="28" y="324" font-family="Arial" font-size="13" fill="#111827">structured-experiment-json  pass  flags=0</text><rect x="290" y="332" width="420" height="12" rx="3" fill="#047857"/><rect x="290" y="350" width="2" height="12" rx="3" fill="#64748b"/><text x="726" y="343" font-family="Arial" font-size="12" fill="#374151">unique=100.0%</text><text x="726" y="361" font-family="Arial" font-size="12" fill="#374151">repeat=0.0%</text><text x="28" y="356" font-family="Arial" font-size="12" fill="#4b5563">变类时y</text><text x="28" y="394" font-family="Arial" font-size="13" fill="#111827">factual-val-loss  pass  flags=0</text><rect x="290" y="402" width="420" height="12" rx="3" fill="#047857"/><rect x="290" y="420" width="2" height="12" rx="3" fill="#64748b"/><text x="726" y="413" font-family="Arial" font-size="12" fill="#374151">unique=100.0%</text><text x="726" y="431" font-family="Arial" font-size="12" fill="#374151">repeat=0.0%</text><text x="28" y="426" font-family="Arial" font-size="12" fill="#4b5563">变成T指</text><text x="28" y="464" font-family="Arial" font-size="13" fill="#111827">classification-risk-level  pass  flags=0</text><rect x="290" y="472" width="420" height="12" rx="3" fill="#047857"/><rect x="290" y="490" width="2" height="12" rx="3" fill="#64748b"/><text x="726" y="483" font-family="Arial" font-size="12" fill="#374151">unique=100.0%</text><text x="726" y="501" font-family="Arial" font-size="12" fill="#374151">repeat=0.0%</text><text x="28" y="496" font-family="Arial" font-size="12" fill="#4b5563">：共时.</text><text x="28" y="534" font-family="Arial" font-size="13" fill="#111827">style-rewrite-concise  pass  flags=0</text><rect x="290" y="542" width="420" height="12" rx="3" fill="#047857"/><rect x="290" y="560" width="2" height="12" rx="3" fill="#64748b"/><text x="726" y="553" font-family="Arial" font-size="12" fill="#374151">unique=100.0%</text><text x="726" y="571" font-family="Arial" font-size="12" fill="#374151">repeat=0.0%</text><text x="28" y="566" font-family="Arial" font-size="12" fill="#4b5563">字Ty指</text><text x="28" y="604" font-family="Arial" font-size="13" fill="#111827">refusal-boundary  pass  flags=0</text><rect x="290" y="612" width="420" height="12" rx="3" fill="#047857"/><rect x="290" y="630" width="2" height="12" rx="3" fill="#64748b"/><text x="726" y="623" font-family="Arial" font-size="12" fill="#374151">unique=100.0%</text><text x="726" y="641" font-family="Arial" font-size="12" fill="#374151">repeat=0.0%</text><text x="28" y="636" font-family="Arial" font-size="12" fill="#4b5563">c要准字</text><text x="28" y="674" font-family="Arial" font-size="13" fill="#111827">self-check-missing-data  pass  flags=0</text><rect x="290" y="682" width="420" height="12" rx="3" fill="#047857"/><rect x="290" y="700" width="2" height="12" rx="3" fill="#64748b"/><text x="726" y="693" font-family="Arial" font-size="12" fill="#374151">unique=100.0%</text><text x="726" y="711" font-family="Arial" font-size="12" fill="#374151">repeat=0.0%</text><text x="28" y="706" font-family="Arial" font-size="12" fill="#4b5563">四型少通</text><text x="28" y="744" font-family="Arial" font-size="13" fill="#111827">comparison-baseline  pass  flags=0</text><rect x="290" y="752" width="420" height="12" rx="3" fill="#047857"/><rect x="290" y="770" width="2" height="12" rx="3" fill="#64748b"/><text x="726" y="763" font-family="Arial" font-size="12" fill="#374151">unique=100.0%</text><text x="726" y="781" font-family="Arial" font-size="12" fill="#374151">repeat=0.0%</text><text x="28" y="776" font-family="Arial" font-size="12" fill="#4b5563">准备化归</text>
</svg>
