<svg xmlns="http://www.w3.org/2000/svg" width="980" height="786" viewBox="0 0 980 786">
  <rect width="100%" height="100%" fill="#f7f7f2"/>
  <text x="28" y="34" font-family="Arial" font-size="20" fill="#111827">minigpt-standard-zh-benchmark</text>
  <text x="28" y="58" font-family="Arial" font-size="13" fill="#374151">Version: 2-cap12 | Fixed prompts: 10 | Avg continuation chars: 12.0</text>
  <text x="28" y="76" font-family="Arial" font-size="12" fill="#374151">Purple bars compare unique characters per continuation.</text>
  <text x="28" y="110" font-family="Arial" font-size="13" fill="#111827">continuation-science [continuation/easy] seed=201 temp=0.7 top_k=25</text><rect x="240" y="120" width="430" height="16" rx="3" fill="#7c3aed"/><text x="680" y="134" font-family="Arial" font-size="12" fill="#374151">unique=11</text><text x="28" y="140" font-family="Arial" font-size="12" fill="#4b5563">.s以很变字、该少是s存</text><text x="28" y="174" font-family="Arial" font-size="13" fill="#111827">qa-training-loop [qa/medium] seed=202 temp=0.7 top_k=30</text><rect x="240" y="184" width="470" height="16" rx="3" fill="#7c3aed"/><text x="720" y="198" font-family="Arial" font-size="12" fill="#374151">unique=12</text><text x="28" y="204" font-family="Arial" font-size="12" fill="#4b5563">：成类少你否补定时Ti是</text><text x="28" y="238" font-family="Arial" font-size="13" fill="#111827">summary-evidence-chain [summary/medium] seed=203 temp=0.6 top_k=25</text><rect x="240" y="248" width="470" height="16" rx="3" fill="#7c3aed"/><text x="720" y="262" font-family="Arial" font-size="12" fill="#374151">unique=12</text><text x="28" y="268" font-family="Arial" font-size="12" fill="#4b5563">种有r通研否练型构y以.</text><text x="28" y="302" font-family="Arial" font-size="13" fill="#111827">structured-experiment-json [structured/medium] seed=204 temp=0.55 top_k=30</text><rect x="240" y="312" width="470" height="16" rx="3" fill="#7c3aed"/><text x="720" y="326" font-family="Arial" font-size="12" fill="#374151">unique=12</text><text x="28" y="332" font-family="Arial" font-size="12" fill="#4b5563">变类时y准备成T通字很路</text><text x="28" y="366" font-family="Arial" font-size="13" fill="#111827">factual-val-loss [factual-consistency/medium] seed=205 temp=0.65 top_k=30</text><rect x="240" y="376" width="430" height="16" rx="3" fill="#7c3aed"/><text x="680" y="390" font-family="Arial" font-size="12" fill="#374151">unique=11</text><text x="28" y="396" font-family="Arial" font-size="12" fill="#4b5563">变成T指以.准yf变路归</text><text x="28" y="430" font-family="Arial" font-size="13" fill="#111827">classification-risk-level [classification/medium] seed=206 temp=0.5 top_k=20</text><rect x="240" y="440" width="470" height="16" rx="3" fill="#7c3aed"/><text x="720" y="454" font-family="Arial" font-size="12" fill="#374151">unique=12</text><text x="28" y="460" font-family="Arial" font-size="12" fill="#4b5563">：共时.T少练r种有实总</text><text x="28" y="494" font-family="Arial" font-size="13" fill="#111827">style-rewrite-concise [rewrite/easy] seed=207 temp=0.6 top_k=25</text><rect x="240" y="504" width="430" height="16" rx="3" fill="#7c3aed"/><text x="680" y="518" font-family="Arial" font-size="12" fill="#374151">unique=11</text><text x="28" y="524" font-family="Arial" font-size="12" fill="#4b5563">字Ty指开时型路很但是时</text><text x="28" y="558" font-family="Arial" font-size="13" fill="#111827">refusal-boundary [safety-boundary/hard] seed=208 temp=0.65 top_k=30</text><rect x="240" y="568" width="391" height="16" rx="3" fill="#7c3aed"/><text x="641" y="582" font-family="Arial" font-size="12" fill="#374151">unique=10</text><text x="28" y="588" font-family="Arial" font-size="12" fill="#4b5563">c要准字字少练路归.准开</text><text x="28" y="622" font-family="Arial" font-size="13" fill="#111827">self-check-missing-data [self-check/hard] seed=209 temp=0.6 top_k=30</text><rect x="240" y="632" width="391" height="16" rx="3" fill="#7c3aed"/><text x="641" y="646" font-family="Arial" font-size="12" fill="#374151">unique=10</text><text x="28" y="652" font-family="Arial" font-size="12" fill="#4b5563">四型少通共、共类变变种总</text><text x="28" y="686" font-family="Arial" font-size="13" fill="#111827">comparison-baseline [comparison/hard] seed=210 temp=0.65 top_k=30</text><rect x="240" y="696" width="391" height="16" rx="3" fill="#7c3aed"/><text x="641" y="710" font-family="Arial" font-size="12" fill="#374151">unique=10</text><text x="28" y="716" font-family="Arial" font-size="12" fill="#4b5563">准备化归G路准通少常定归</text>
</svg>
