<svg xmlns="http://www.w3.org/2000/svg" width="820" height="420" viewBox="0 0 820 420">
  <rect width="100%" height="100%" fill="#fbfbf7"/>
  <text x="64" y="22" font-family="Arial, sans-serif" font-size="16" fill="#111827">MiniGPT loss curve</text>
  <line x1="64" y1="32" x2="64" y2="366" stroke="#374151" stroke-width="1"/>
  <line x1="64" y1="366" x2="792" y2="366" stroke="#374151" stroke-width="1"/>
  <polyline points="64.0,32.0 100.6,101.6 141.3,146.0 181.9,178.1 222.6,202.5 263.3,224.1 304.0,244.3 344.6,267.7 385.3,254.1 426.0,269.9 466.6,299.9 507.3,306.5 548.0,299.5 588.6,323.2 629.3,319.6 670.0,346.4 710.7,338.4 751.3,354.5 792.0,352.0" fill="none" stroke="#2563eb" stroke-width="3"/>
  <polyline points="64.0,40.1 100.6,119.0 141.3,170.3 181.9,214.9 222.6,234.4 263.3,264.9 304.0,284.2 344.6,302.5 385.3,302.4 426.0,315.5 466.6,333.7 507.3,311.5 548.0,343.2 588.6,353.5 629.3,350.7 670.0,361.9 710.7,354.4 751.3,366.0 792.0,365.3" fill="none" stroke="#dc2626" stroke-width="3"/>
  <text x="64" y="398" font-family="Arial, sans-serif" font-size="13" fill="#374151">step 1 to 180</text>
  <text x="560" y="398" font-family="Arial, sans-serif" font-size="13" fill="#374151">best val: 0.8273 @ step 170</text>
  <circle cx="751.3" cy="366.0" r="5" fill="#dc2626"/>
  <rect x="650" y="30" width="130" height="54" rx="4" fill="#ffffff" stroke="#d1d5db"/>
  <line x1="664" y1="50" x2="704" y2="50" stroke="#2563eb" stroke-width="3"/>
  <text x="714" y="54" font-family="Arial, sans-serif" font-size="13" fill="#111827">train</text>
  <line x1="664" y1="72" x2="704" y2="72" stroke="#dc2626" stroke-width="3"/>
  <text x="714" y="76" font-family="Arial, sans-serif" font-size="13" fill="#111827">val</text>
</svg>
