<svg xmlns="http://www.w3.org/2000/svg" width="820" height="420" viewBox="0 0 820 420">
  <rect width="100%" height="100%" fill="#fbfbf7"/>
  <text x="64" y="22" font-family="Arial, sans-serif" font-size="16" fill="#111827">MiniGPT loss curve</text>
  <line x1="64" y1="32" x2="64" y2="366" stroke="#374151" stroke-width="1"/>
  <line x1="64" y1="366" x2="792" y2="366" stroke="#374151" stroke-width="1"/>
  <polyline points="64.0,32.0 119.1,100.5 180.2,148.0 241.4,185.2 302.6,216.5 363.8,245.1 424.9,253.9 486.1,275.3 547.3,287.9 608.5,297.8 669.6,306.0 730.8,325.1 792.0,333.8" fill="none" stroke="#2563eb" stroke-width="3"/>
  <polyline points="64.0,34.8 119.1,112.9 180.2,163.6 241.4,205.3 302.6,234.9 363.8,262.9 424.9,289.3 486.1,307.1 547.3,316.6 608.5,326.8 669.6,338.6 730.8,356.2 792.0,366.0" fill="none" stroke="#dc2626" stroke-width="3"/>
  <text x="64" y="398" font-family="Arial, sans-serif" font-size="13" fill="#374151">step 1 to 120</text>
  <text x="560" y="398" font-family="Arial, sans-serif" font-size="13" fill="#374151">best val: 1.0369 @ step 120</text>
  <circle cx="792.0" cy="366.0" r="5" fill="#dc2626"/>
  <rect x="650" y="30" width="130" height="54" rx="4" fill="#ffffff" stroke="#d1d5db"/>
  <line x1="664" y1="50" x2="704" y2="50" stroke="#2563eb" stroke-width="3"/>
  <text x="714" y="54" font-family="Arial, sans-serif" font-size="13" fill="#111827">train</text>
  <line x1="664" y1="72" x2="704" y2="72" stroke="#dc2626" stroke-width="3"/>
  <text x="714" y="76" font-family="Arial, sans-serif" font-size="13" fill="#111827">val</text>
</svg>
