<svg xmlns="http://www.w3.org/2000/svg" width="820" height="420" viewBox="0 0 820 420">
  <rect width="100%" height="100%" fill="#fbfbf7"/>
  <text x="64" y="22" font-family="Arial, sans-serif" font-size="16" fill="#111827">MiniGPT loss curve</text>
  <line x1="64" y1="32" x2="64" y2="366" stroke="#374151" stroke-width="1"/>
  <line x1="64" y1="366" x2="792" y2="366" stroke="#374151" stroke-width="1"/>
  <polyline points="64.0,32.0 87.5,95.9 113.6,132.5 139.7,164.0 165.8,183.4 191.9,209.7 217.9,232.4 244.0,216.2 270.1,246.2 296.2,262.5 322.3,278.6 348.4,265.7 374.5,274.5 400.6,303.7 426.7,301.5 452.8,307.1 478.9,330.6 505.0,307.1 531.1,309.1 557.2,334.2 583.3,340.8 609.3,343.0 635.4,339.1 661.5,360.3 687.6,345.2 713.7,328.3 739.8,347.6 765.9,350.9 792.0,362.8" fill="none" stroke="#2563eb" stroke-width="3"/>
  <polyline points="64.0,32.4 87.5,105.4 113.6,145.2 139.7,184.3 165.8,213.6 191.9,226.4 217.9,247.9 244.0,273.6 270.1,284.9 296.2,276.4 322.3,293.1 348.4,299.2 374.5,323.1 400.6,326.7 426.7,335.0 452.8,333.6 478.9,332.9 505.0,354.1 531.1,339.9 557.2,346.8 583.3,350.3 609.3,354.9 635.4,361.7 661.5,357.9 687.6,344.2 713.7,346.5 739.8,360.7 765.9,355.4 792.0,366.0" fill="none" stroke="#dc2626" stroke-width="3"/>
  <text x="64" y="398" font-family="Arial, sans-serif" font-size="13" fill="#374151">step 1 to 280</text>
  <text x="560" y="398" font-family="Arial, sans-serif" font-size="13" fill="#374151">best val: 0.4454 @ step 280</text>
  <circle cx="792.0" cy="366.0" r="5" fill="#dc2626"/>
  <rect x="650" y="30" width="130" height="54" rx="4" fill="#ffffff" stroke="#d1d5db"/>
  <line x1="664" y1="50" x2="704" y2="50" stroke="#2563eb" stroke-width="3"/>
  <text x="714" y="54" font-family="Arial, sans-serif" font-size="13" fill="#111827">train</text>
  <line x1="664" y1="72" x2="704" y2="72" stroke="#dc2626" stroke-width="3"/>
  <text x="714" y="76" font-family="Arial, sans-serif" font-size="13" fill="#111827">val</text>
</svg>
